<mxfile host="Electron" agent="Mozilla/5.0 (Windows NT 10.0; Win64; x64) AppleWebKit/537.36 (KHTML, like Gecko) draw.io/24.7.17 Chrome/128.0.6613.36 Electron/32.0.1 Safari/537.36" version="24.7.17">
  <diagram id="C5RBs43oDa-KdzZeNtuy" name="Page-1">
    <mxGraphModel dx="1325" dy="732" grid="1" gridSize="10" guides="1" tooltips="1" connect="1" arrows="1" fold="1" page="0" pageScale="1" pageWidth="827" pageHeight="1169" math="0" shadow="0">
      <root>
        <mxCell id="WIyWlLk6GJQsqaUBKTNV-0" />
        <mxCell id="WIyWlLk6GJQsqaUBKTNV-1" parent="WIyWlLk6GJQsqaUBKTNV-0" />
        <mxCell id="he36MSc151WVG09XfCEi-1" value="&lt;b&gt;TEACHER&lt;/b&gt;" style="whiteSpace=wrap;html=1;" parent="WIyWlLk6GJQsqaUBKTNV-1" vertex="1">
          <mxGeometry x="640" y="340" width="120" height="60" as="geometry" />
        </mxCell>
        <mxCell id="he36MSc151WVG09XfCEi-2" value="&lt;b&gt;STUDENT&lt;/b&gt;" style="rounded=1;whiteSpace=wrap;html=1;fontSize=12;glass=0;strokeWidth=1;shadow=0;" parent="WIyWlLk6GJQsqaUBKTNV-1" vertex="1">
          <mxGeometry x="540" y="120" width="120" height="40" as="geometry" />
        </mxCell>
        <mxCell id="he36MSc151WVG09XfCEi-4" value="" style="endArrow=none;html=1;rounded=0;" parent="WIyWlLk6GJQsqaUBKTNV-1" edge="1">
          <mxGeometry width="50" height="50" relative="1" as="geometry">
            <mxPoint x="550" y="120" as="sourcePoint" />
            <mxPoint x="510" y="100" as="targetPoint" />
          </mxGeometry>
        </mxCell>
        <mxCell id="he36MSc151WVG09XfCEi-5" value="student ıd" style="ellipse;whiteSpace=wrap;html=1;" parent="WIyWlLk6GJQsqaUBKTNV-1" vertex="1">
          <mxGeometry x="480" y="70" width="54" height="40" as="geometry" />
        </mxCell>
        <mxCell id="he36MSc151WVG09XfCEi-8" value="Name" style="ellipse;whiteSpace=wrap;html=1;" parent="WIyWlLk6GJQsqaUBKTNV-1" vertex="1">
          <mxGeometry x="660" y="60" width="40" height="40" as="geometry" />
        </mxCell>
        <mxCell id="he36MSc151WVG09XfCEi-9" value="" style="endArrow=none;html=1;rounded=0;" parent="WIyWlLk6GJQsqaUBKTNV-1" edge="1">
          <mxGeometry width="50" height="50" relative="1" as="geometry">
            <mxPoint x="630" y="125" as="sourcePoint" />
            <mxPoint x="670" y="90" as="targetPoint" />
          </mxGeometry>
        </mxCell>
        <mxCell id="he36MSc151WVG09XfCEi-10" value="Surname" style="ellipse;whiteSpace=wrap;html=1;" parent="WIyWlLk6GJQsqaUBKTNV-1" vertex="1">
          <mxGeometry x="700" y="100" width="40" height="60" as="geometry" />
        </mxCell>
        <mxCell id="he36MSc151WVG09XfCEi-11" value="" style="endArrow=none;html=1;rounded=0;entryX=0;entryY=0.5;entryDx=0;entryDy=0;" parent="WIyWlLk6GJQsqaUBKTNV-1" target="he36MSc151WVG09XfCEi-10" edge="1">
          <mxGeometry width="50" height="50" relative="1" as="geometry">
            <mxPoint x="660" y="145" as="sourcePoint" />
            <mxPoint x="700" y="110" as="targetPoint" />
          </mxGeometry>
        </mxCell>
        <mxCell id="he36MSc151WVG09XfCEi-12" value="Date of birth" style="ellipse;whiteSpace=wrap;html=1;" parent="WIyWlLk6GJQsqaUBKTNV-1" vertex="1">
          <mxGeometry x="570" y="20" width="50" height="60" as="geometry" />
        </mxCell>
        <mxCell id="he36MSc151WVG09XfCEi-13" value="Register state" style="ellipse;whiteSpace=wrap;html=1;" parent="WIyWlLk6GJQsqaUBKTNV-1" vertex="1">
          <mxGeometry x="660" y="180" width="50" height="60" as="geometry" />
        </mxCell>
        <mxCell id="he36MSc151WVG09XfCEi-14" value="Gender" style="ellipse;whiteSpace=wrap;html=1;" parent="WIyWlLk6GJQsqaUBKTNV-1" vertex="1">
          <mxGeometry x="517.5" y="185" width="45" height="40" as="geometry" />
        </mxCell>
        <mxCell id="he36MSc151WVG09XfCEi-15" value="" style="endArrow=none;html=1;rounded=0;" parent="WIyWlLk6GJQsqaUBKTNV-1" edge="1">
          <mxGeometry width="50" height="50" relative="1" as="geometry">
            <mxPoint x="540" y="187.5" as="sourcePoint" />
            <mxPoint x="580" y="152.5" as="targetPoint" />
          </mxGeometry>
        </mxCell>
        <mxCell id="he36MSc151WVG09XfCEi-16" value="" style="endArrow=none;html=1;rounded=0;entryX=0.5;entryY=1;entryDx=0;entryDy=0;" parent="WIyWlLk6GJQsqaUBKTNV-1" target="he36MSc151WVG09XfCEi-12" edge="1">
          <mxGeometry width="50" height="50" relative="1" as="geometry">
            <mxPoint x="580" y="120" as="sourcePoint" />
            <mxPoint x="620" y="85" as="targetPoint" />
          </mxGeometry>
        </mxCell>
        <mxCell id="he36MSc151WVG09XfCEi-17" value="&lt;b&gt;&lt;u&gt;Class no&lt;/u&gt;&lt;/b&gt;" style="ellipse;whiteSpace=wrap;html=1;" parent="WIyWlLk6GJQsqaUBKTNV-1" vertex="1">
          <mxGeometry x="456" y="140" width="44" height="40" as="geometry" />
        </mxCell>
        <mxCell id="he36MSc151WVG09XfCEi-19" value="" style="endArrow=none;html=1;rounded=0;entryX=0.971;entryY=0.288;entryDx=0;entryDy=0;entryPerimeter=0;" parent="WIyWlLk6GJQsqaUBKTNV-1" target="he36MSc151WVG09XfCEi-17" edge="1">
          <mxGeometry width="50" height="50" relative="1" as="geometry">
            <mxPoint x="540" y="152" as="sourcePoint" />
            <mxPoint x="595" y="110" as="targetPoint" />
            <Array as="points" />
          </mxGeometry>
        </mxCell>
        <mxCell id="he36MSc151WVG09XfCEi-21" value="Name" style="ellipse;whiteSpace=wrap;html=1;" parent="WIyWlLk6GJQsqaUBKTNV-1" vertex="1">
          <mxGeometry x="640" y="265" width="40" height="40" as="geometry" />
        </mxCell>
        <mxCell id="he36MSc151WVG09XfCEi-22" value="Teacher ıd" style="ellipse;whiteSpace=wrap;html=1;" parent="WIyWlLk6GJQsqaUBKTNV-1" vertex="1">
          <mxGeometry x="517.5" y="350" width="40" height="40" as="geometry" />
        </mxCell>
        <mxCell id="he36MSc151WVG09XfCEi-23" value="E mail" style="ellipse;whiteSpace=wrap;html=1;" parent="WIyWlLk6GJQsqaUBKTNV-1" vertex="1">
          <mxGeometry x="730" y="440" width="50" height="50" as="geometry" />
        </mxCell>
        <mxCell id="he36MSc151WVG09XfCEi-24" value="Phone" style="ellipse;whiteSpace=wrap;html=1;" parent="WIyWlLk6GJQsqaUBKTNV-1" vertex="1">
          <mxGeometry x="575" y="400" width="40" height="50" as="geometry" />
        </mxCell>
        <mxCell id="he36MSc151WVG09XfCEi-25" value="Branch" style="ellipse;whiteSpace=wrap;html=1;" parent="WIyWlLk6GJQsqaUBKTNV-1" vertex="1">
          <mxGeometry x="665" y="470" width="40" height="60" as="geometry" />
        </mxCell>
        <mxCell id="he36MSc151WVG09XfCEi-26" value="Surname" style="ellipse;whiteSpace=wrap;html=1;" parent="WIyWlLk6GJQsqaUBKTNV-1" vertex="1">
          <mxGeometry x="735" y="260" width="40" height="50" as="geometry" />
        </mxCell>
        <mxCell id="he36MSc151WVG09XfCEi-27" value="" style="endArrow=none;html=1;rounded=0;entryX=0.307;entryY=0.069;entryDx=0;entryDy=0;entryPerimeter=0;" parent="WIyWlLk6GJQsqaUBKTNV-1" target="he36MSc151WVG09XfCEi-13" edge="1">
          <mxGeometry width="50" height="50" relative="1" as="geometry">
            <mxPoint x="650" y="165" as="sourcePoint" />
            <mxPoint x="690" y="150" as="targetPoint" />
          </mxGeometry>
        </mxCell>
        <mxCell id="he36MSc151WVG09XfCEi-29" value="" style="endArrow=none;html=1;rounded=0;exitX=0.875;exitY=0.983;exitDx=0;exitDy=0;exitPerimeter=0;entryX=0.5;entryY=0;entryDx=0;entryDy=0;" parent="WIyWlLk6GJQsqaUBKTNV-1" source="he36MSc151WVG09XfCEi-1" target="he36MSc151WVG09XfCEi-23" edge="1">
          <mxGeometry width="50" height="50" relative="1" as="geometry">
            <mxPoint x="600" y="447.5" as="sourcePoint" />
            <mxPoint x="640" y="412.5" as="targetPoint" />
          </mxGeometry>
        </mxCell>
        <mxCell id="he36MSc151WVG09XfCEi-30" value="" style="endArrow=none;html=1;rounded=0;" parent="WIyWlLk6GJQsqaUBKTNV-1" edge="1">
          <mxGeometry width="50" height="50" relative="1" as="geometry">
            <mxPoint x="720" y="337.5" as="sourcePoint" />
            <mxPoint x="750" y="310" as="targetPoint" />
          </mxGeometry>
        </mxCell>
        <mxCell id="he36MSc151WVG09XfCEi-31" value="" style="endArrow=none;html=1;rounded=0;" parent="WIyWlLk6GJQsqaUBKTNV-1" edge="1">
          <mxGeometry width="50" height="50" relative="1" as="geometry">
            <mxPoint x="613" y="410" as="sourcePoint" />
            <mxPoint x="640" y="390" as="targetPoint" />
            <Array as="points">
              <mxPoint x="605" y="420" />
            </Array>
          </mxGeometry>
        </mxCell>
        <mxCell id="he36MSc151WVG09XfCEi-32" value="" style="endArrow=none;html=1;rounded=0;entryX=0.344;entryY=1.044;entryDx=0;entryDy=0;entryPerimeter=0;" parent="WIyWlLk6GJQsqaUBKTNV-1" target="he36MSc151WVG09XfCEi-1" edge="1">
          <mxGeometry width="50" height="50" relative="1" as="geometry">
            <mxPoint x="680" y="470" as="sourcePoint" />
            <mxPoint x="700" y="433.67" as="targetPoint" />
          </mxGeometry>
        </mxCell>
        <mxCell id="he36MSc151WVG09XfCEi-33" value="" style="endArrow=none;html=1;rounded=0;entryX=0.5;entryY=1;entryDx=0;entryDy=0;" parent="WIyWlLk6GJQsqaUBKTNV-1" target="he36MSc151WVG09XfCEi-22" edge="1">
          <mxGeometry width="50" height="50" relative="1" as="geometry">
            <mxPoint x="630" y="370" as="sourcePoint" />
            <mxPoint x="560" y="295" as="targetPoint" />
            <Array as="points">
              <mxPoint x="640" y="380" />
            </Array>
          </mxGeometry>
        </mxCell>
        <mxCell id="he36MSc151WVG09XfCEi-34" value="" style="endArrow=none;html=1;rounded=0;entryX=0.5;entryY=1;entryDx=0;entryDy=0;exitX=0.25;exitY=0;exitDx=0;exitDy=0;" parent="WIyWlLk6GJQsqaUBKTNV-1" source="he36MSc151WVG09XfCEi-1" target="he36MSc151WVG09XfCEi-21" edge="1">
          <mxGeometry width="50" height="50" relative="1" as="geometry">
            <mxPoint x="575" y="330" as="sourcePoint" />
            <mxPoint x="615" y="295" as="targetPoint" />
          </mxGeometry>
        </mxCell>
        <mxCell id="tC9lpOL2mER_8e66iGZm-1" value="&lt;b&gt;Lessons&lt;/b&gt;" style="whiteSpace=wrap;html=1;" parent="WIyWlLk6GJQsqaUBKTNV-1" vertex="1">
          <mxGeometry x="-356" y="350" width="100" height="50" as="geometry" />
        </mxCell>
        <mxCell id="tC9lpOL2mER_8e66iGZm-2" value="&lt;b&gt;&lt;u&gt;Lesson&lt;/u&gt;&lt;/b&gt;&lt;div&gt;&lt;b&gt;&lt;u&gt;code&lt;/u&gt;&lt;/b&gt;&lt;/div&gt;" style="ellipse;whiteSpace=wrap;html=1;" parent="WIyWlLk6GJQsqaUBKTNV-1" vertex="1">
          <mxGeometry x="-210" y="280" width="40" height="60" as="geometry" />
        </mxCell>
        <mxCell id="tC9lpOL2mER_8e66iGZm-5" value="Lesson name" style="ellipse;whiteSpace=wrap;html=1;" parent="WIyWlLk6GJQsqaUBKTNV-1" vertex="1">
          <mxGeometry x="-440" y="385" width="40" height="60" as="geometry" />
        </mxCell>
        <mxCell id="tC9lpOL2mER_8e66iGZm-7" value="" style="endArrow=none;html=1;rounded=0;entryX=0.75;entryY=1;entryDx=0;entryDy=0;" parent="WIyWlLk6GJQsqaUBKTNV-1" source="tC9lpOL2mER_8e66iGZm-4" target="tC9lpOL2mER_8e66iGZm-1" edge="1">
          <mxGeometry width="50" height="50" relative="1" as="geometry">
            <mxPoint x="150" y="313.75" as="sourcePoint" />
            <mxPoint x="-280" y="420" as="targetPoint" />
            <Array as="points" />
          </mxGeometry>
        </mxCell>
        <mxCell id="tC9lpOL2mER_8e66iGZm-12" value="&lt;b&gt;Calsses&lt;/b&gt;" style="rounded=1;whiteSpace=wrap;html=1;fontSize=12;glass=0;strokeWidth=1;shadow=0;" parent="WIyWlLk6GJQsqaUBKTNV-1" vertex="1">
          <mxGeometry x="-450" y="110" width="120" height="40" as="geometry" />
        </mxCell>
        <mxCell id="tC9lpOL2mER_8e66iGZm-13" value="Number of student" style="ellipse;whiteSpace=wrap;html=1;" parent="WIyWlLk6GJQsqaUBKTNV-1" vertex="1">
          <mxGeometry x="-440" width="50" height="60" as="geometry" />
        </mxCell>
        <mxCell id="tC9lpOL2mER_8e66iGZm-15" value="Class no" style="ellipse;whiteSpace=wrap;html=1;" parent="WIyWlLk6GJQsqaUBKTNV-1" vertex="1">
          <mxGeometry x="-494" y="195" width="54" height="40" as="geometry" />
        </mxCell>
        <mxCell id="tC9lpOL2mER_8e66iGZm-21" value="" style="endArrow=none;html=1;rounded=0;" parent="WIyWlLk6GJQsqaUBKTNV-1" source="tC9lpOL2mER_8e66iGZm-14" edge="1">
          <mxGeometry width="50" height="50" relative="1" as="geometry">
            <mxPoint x="-217" y="130" as="sourcePoint" />
            <mxPoint x="-360" y="150" as="targetPoint" />
            <Array as="points" />
          </mxGeometry>
        </mxCell>
        <mxCell id="tC9lpOL2mER_8e66iGZm-22" value="" style="endArrow=none;html=1;rounded=0;exitX=1;exitY=0;exitDx=0;exitDy=0;" parent="WIyWlLk6GJQsqaUBKTNV-1" source="tC9lpOL2mER_8e66iGZm-15" edge="1">
          <mxGeometry width="50" height="50" relative="1" as="geometry">
            <mxPoint x="-380" y="200" as="sourcePoint" />
            <mxPoint x="-417" y="150" as="targetPoint" />
          </mxGeometry>
        </mxCell>
        <mxCell id="tC9lpOL2mER_8e66iGZm-23" value="" style="endArrow=none;html=1;rounded=0;entryX=0;entryY=0.75;entryDx=0;entryDy=0;" parent="WIyWlLk6GJQsqaUBKTNV-1" target="tC9lpOL2mER_8e66iGZm-12" edge="1">
          <mxGeometry width="50" height="50" relative="1" as="geometry">
            <mxPoint x="-420" y="60" as="sourcePoint" />
            <mxPoint x="-3" y="120" as="targetPoint" />
          </mxGeometry>
        </mxCell>
        <mxCell id="tC9lpOL2mER_8e66iGZm-14" value="Minister of class ıd" style="ellipse;whiteSpace=wrap;html=1;" parent="WIyWlLk6GJQsqaUBKTNV-1" vertex="1">
          <mxGeometry x="-320" y="170" width="54" height="40" as="geometry" />
        </mxCell>
        <mxCell id="tC9lpOL2mER_8e66iGZm-33" value="" style="endArrow=none;html=1;rounded=0;entryX=0;entryY=1;entryDx=0;entryDy=0;exitX=1;exitY=0.25;exitDx=0;exitDy=0;" parent="WIyWlLk6GJQsqaUBKTNV-1" source="tC9lpOL2mER_8e66iGZm-1" target="tC9lpOL2mER_8e66iGZm-2" edge="1">
          <mxGeometry width="50" height="50" relative="1" as="geometry">
            <mxPoint x="-240" y="370" as="sourcePoint" />
            <mxPoint x="-186" y="320" as="targetPoint" />
          </mxGeometry>
        </mxCell>
        <mxCell id="tC9lpOL2mER_8e66iGZm-4" value="Credit" style="ellipse;whiteSpace=wrap;html=1;" parent="WIyWlLk6GJQsqaUBKTNV-1" vertex="1">
          <mxGeometry x="-346" y="440" width="40" height="60" as="geometry" />
        </mxCell>
        <mxCell id="tC9lpOL2mER_8e66iGZm-36" value="&lt;b&gt;Registration&lt;/b&gt;" style="rounded=1;whiteSpace=wrap;html=1;fontSize=12;glass=0;strokeWidth=1;shadow=0;" parent="WIyWlLk6GJQsqaUBKTNV-1" vertex="1">
          <mxGeometry x="50" y="275" width="120" height="40" as="geometry" />
        </mxCell>
        <mxCell id="tC9lpOL2mER_8e66iGZm-37" value="Score" style="ellipse;whiteSpace=wrap;html=1;" parent="WIyWlLk6GJQsqaUBKTNV-1" vertex="1">
          <mxGeometry y="350" width="44" height="40" as="geometry" />
        </mxCell>
        <mxCell id="tC9lpOL2mER_8e66iGZm-38" value="discontinuity" style="ellipse;whiteSpace=wrap;html=1;" parent="WIyWlLk6GJQsqaUBKTNV-1" vertex="1">
          <mxGeometry x="90" y="340" width="60" height="50" as="geometry" />
        </mxCell>
        <mxCell id="tC9lpOL2mER_8e66iGZm-40" value="&lt;b&gt;&lt;u&gt;Student ıd&lt;/u&gt;&lt;/b&gt;" style="ellipse;whiteSpace=wrap;html=1;" parent="WIyWlLk6GJQsqaUBKTNV-1" vertex="1">
          <mxGeometry y="220" width="44" height="40" as="geometry" />
        </mxCell>
        <mxCell id="tC9lpOL2mER_8e66iGZm-43" value="" style="endArrow=none;html=1;rounded=0;" parent="WIyWlLk6GJQsqaUBKTNV-1" edge="1">
          <mxGeometry width="50" height="50" relative="1" as="geometry">
            <mxPoint x="40" y="370" as="sourcePoint" />
            <mxPoint x="50" y="309.36" as="targetPoint" />
          </mxGeometry>
        </mxCell>
        <mxCell id="tC9lpOL2mER_8e66iGZm-44" value="" style="endArrow=none;html=1;rounded=0;entryX=1;entryY=0;entryDx=0;entryDy=0;" parent="WIyWlLk6GJQsqaUBKTNV-1" target="tC9lpOL2mER_8e66iGZm-38" edge="1">
          <mxGeometry width="50" height="50" relative="1" as="geometry">
            <mxPoint x="160" y="309" as="sourcePoint" />
            <mxPoint x="220" y="370" as="targetPoint" />
            <Array as="points" />
          </mxGeometry>
        </mxCell>
        <mxCell id="tC9lpOL2mER_8e66iGZm-45" value="" style="endArrow=none;html=1;rounded=0;entryX=1;entryY=1;entryDx=0;entryDy=0;exitX=0;exitY=0;exitDx=0;exitDy=0;" parent="WIyWlLk6GJQsqaUBKTNV-1" source="tC9lpOL2mER_8e66iGZm-36" target="tC9lpOL2mER_8e66iGZm-40" edge="1">
          <mxGeometry width="50" height="50" relative="1" as="geometry">
            <mxPoint x="30" y="237.5" as="sourcePoint" />
            <mxPoint x="20" y="200" as="targetPoint" />
          </mxGeometry>
        </mxCell>
        <mxCell id="tC9lpOL2mER_8e66iGZm-46" value="" style="endArrow=none;html=1;rounded=0;" parent="WIyWlLk6GJQsqaUBKTNV-1" source="tC9lpOL2mER_8e66iGZm-39" edge="1">
          <mxGeometry width="50" height="50" relative="1" as="geometry">
            <mxPoint x="160" y="270" as="sourcePoint" />
            <mxPoint x="170" y="210" as="targetPoint" />
            <Array as="points" />
          </mxGeometry>
        </mxCell>
        <mxCell id="tC9lpOL2mER_8e66iGZm-48" value="&lt;b&gt;Assaignment&lt;/b&gt;" style="rounded=1;whiteSpace=wrap;html=1;fontSize=12;glass=0;strokeWidth=1;shadow=0;" parent="WIyWlLk6GJQsqaUBKTNV-1" vertex="1">
          <mxGeometry x="24" width="120" height="40" as="geometry" />
        </mxCell>
        <mxCell id="tC9lpOL2mER_8e66iGZm-49" value="Assaign ıd" style="ellipse;whiteSpace=wrap;html=1;" parent="WIyWlLk6GJQsqaUBKTNV-1" vertex="1">
          <mxGeometry x="-120" width="54" height="40" as="geometry" />
        </mxCell>
        <mxCell id="tC9lpOL2mER_8e66iGZm-50" value="&lt;b&gt;&lt;u&gt;Teacher ıd&lt;/u&gt;&lt;/b&gt;" style="ellipse;whiteSpace=wrap;html=1;" parent="WIyWlLk6GJQsqaUBKTNV-1" vertex="1">
          <mxGeometry x="-20" y="50" width="54" height="40" as="geometry" />
        </mxCell>
        <mxCell id="tC9lpOL2mER_8e66iGZm-51" value="&lt;u&gt;&lt;b&gt;Lesson code&lt;/b&gt;&lt;/u&gt;" style="ellipse;whiteSpace=wrap;html=1;" parent="WIyWlLk6GJQsqaUBKTNV-1" vertex="1">
          <mxGeometry x="96" y="60" width="54" height="40" as="geometry" />
        </mxCell>
        <mxCell id="tC9lpOL2mER_8e66iGZm-53" value="" style="endArrow=none;html=1;rounded=0;exitX=1;exitY=1;exitDx=0;exitDy=0;entryX=0;entryY=0.5;entryDx=0;entryDy=0;" parent="WIyWlLk6GJQsqaUBKTNV-1" source="tC9lpOL2mER_8e66iGZm-49" target="tC9lpOL2mER_8e66iGZm-48" edge="1">
          <mxGeometry width="50" height="50" relative="1" as="geometry">
            <mxPoint x="-40" y="90" as="sourcePoint" />
            <mxPoint x="-10" y="40" as="targetPoint" />
          </mxGeometry>
        </mxCell>
        <mxCell id="tC9lpOL2mER_8e66iGZm-54" value="" style="endArrow=none;html=1;rounded=0;entryX=0.63;entryY=0.05;entryDx=0;entryDy=0;entryPerimeter=0;" parent="WIyWlLk6GJQsqaUBKTNV-1" target="tC9lpOL2mER_8e66iGZm-51" edge="1">
          <mxGeometry width="50" height="50" relative="1" as="geometry">
            <mxPoint x="140" y="40" as="sourcePoint" />
            <mxPoint x="136" y="55" as="targetPoint" />
          </mxGeometry>
        </mxCell>
        <mxCell id="tC9lpOL2mER_8e66iGZm-59" value="" style="endArrow=none;html=1;rounded=0;" parent="WIyWlLk6GJQsqaUBKTNV-1" target="tC9lpOL2mER_8e66iGZm-39" edge="1">
          <mxGeometry width="50" height="50" relative="1" as="geometry">
            <mxPoint x="160" y="270" as="sourcePoint" />
            <mxPoint x="170" y="210" as="targetPoint" />
            <Array as="points" />
          </mxGeometry>
        </mxCell>
        <mxCell id="tC9lpOL2mER_8e66iGZm-39" value="&lt;b&gt;&lt;u&gt;lesson code&lt;/u&gt;&lt;/b&gt;" style="ellipse;whiteSpace=wrap;html=1;" parent="WIyWlLk6GJQsqaUBKTNV-1" vertex="1">
          <mxGeometry x="144" y="210" width="44" height="40" as="geometry" />
        </mxCell>
        <mxCell id="tC9lpOL2mER_8e66iGZm-60" style="edgeStyle=orthogonalEdgeStyle;rounded=0;orthogonalLoop=1;jettySize=auto;html=1;exitX=0.5;exitY=1;exitDx=0;exitDy=0;" parent="WIyWlLk6GJQsqaUBKTNV-1" source="tC9lpOL2mER_8e66iGZm-50" target="tC9lpOL2mER_8e66iGZm-50" edge="1">
          <mxGeometry relative="1" as="geometry" />
        </mxCell>
        <mxCell id="tC9lpOL2mER_8e66iGZm-71" value="" style="endArrow=none;html=1;rounded=0;" parent="WIyWlLk6GJQsqaUBKTNV-1" edge="1">
          <mxGeometry width="50" height="50" relative="1" as="geometry">
            <mxPoint x="26" y="60" as="sourcePoint" />
            <mxPoint x="50" y="35" as="targetPoint" />
            <Array as="points">
              <mxPoint x="26" y="60" />
            </Array>
          </mxGeometry>
        </mxCell>
        <mxCell id="tC9lpOL2mER_8e66iGZm-72" value="" style="rhombus;whiteSpace=wrap;html=1;" parent="WIyWlLk6GJQsqaUBKTNV-1" vertex="1">
          <mxGeometry x="-13" y="-150" width="80" height="80" as="geometry" />
        </mxCell>
        <mxCell id="tC9lpOL2mER_8e66iGZm-75" value="1" style="text;html=1;align=center;verticalAlign=middle;resizable=0;points=[];autosize=1;strokeColor=none;fillColor=none;" parent="WIyWlLk6GJQsqaUBKTNV-1" vertex="1">
          <mxGeometry x="-330" y="100" width="30" height="30" as="geometry" />
        </mxCell>
        <mxCell id="tC9lpOL2mER_8e66iGZm-76" value="N" style="text;html=1;align=center;verticalAlign=middle;whiteSpace=wrap;rounded=0;" parent="WIyWlLk6GJQsqaUBKTNV-1" vertex="1">
          <mxGeometry x="420" y="100" width="60" height="30" as="geometry" />
        </mxCell>
        <mxCell id="tC9lpOL2mER_8e66iGZm-80" value="" style="endArrow=none;html=1;rounded=0;exitX=1;exitY=0.5;exitDx=0;exitDy=0;entryX=0;entryY=0.25;entryDx=0;entryDy=0;" parent="WIyWlLk6GJQsqaUBKTNV-1" source="tC9lpOL2mER_8e66iGZm-72" target="he36MSc151WVG09XfCEi-2" edge="1">
          <mxGeometry width="50" height="50" relative="1" as="geometry">
            <mxPoint x="240" y="175" as="sourcePoint" />
            <mxPoint x="350" y="105" as="targetPoint" />
          </mxGeometry>
        </mxCell>
        <mxCell id="tC9lpOL2mER_8e66iGZm-85" value="" style="endArrow=none;html=1;rounded=0;exitX=0;exitY=0.75;exitDx=0;exitDy=0;" parent="WIyWlLk6GJQsqaUBKTNV-1" source="tC9lpOL2mER_8e66iGZm-91" edge="1">
          <mxGeometry width="50" height="50" relative="1" as="geometry">
            <mxPoint x="-290" y="330" as="sourcePoint" />
            <mxPoint x="-130" y="195" as="targetPoint" />
          </mxGeometry>
        </mxCell>
        <mxCell id="tC9lpOL2mER_8e66iGZm-89" value="" style="rhombus;whiteSpace=wrap;html=1;" parent="WIyWlLk6GJQsqaUBKTNV-1" vertex="1">
          <mxGeometry x="-156" y="140" width="100" height="110" as="geometry" />
        </mxCell>
        <mxCell id="tC9lpOL2mER_8e66iGZm-91" value="1" style="text;html=1;align=center;verticalAlign=middle;whiteSpace=wrap;rounded=0;" parent="WIyWlLk6GJQsqaUBKTNV-1" vertex="1">
          <mxGeometry x="-290" y="325" width="60" height="30" as="geometry" />
        </mxCell>
        <mxCell id="tC9lpOL2mER_8e66iGZm-92" value="N" style="text;html=1;align=center;verticalAlign=middle;whiteSpace=wrap;rounded=0;" parent="WIyWlLk6GJQsqaUBKTNV-1" vertex="1">
          <mxGeometry x="44" y="40" width="60" height="30" as="geometry" />
        </mxCell>
        <mxCell id="tC9lpOL2mER_8e66iGZm-97" value="" style="endArrow=none;html=1;rounded=0;" parent="WIyWlLk6GJQsqaUBKTNV-1" edge="1">
          <mxGeometry width="50" height="50" relative="1" as="geometry">
            <mxPoint x="410" y="200" as="sourcePoint" />
            <mxPoint x="630" y="370" as="targetPoint" />
          </mxGeometry>
        </mxCell>
        <mxCell id="tC9lpOL2mER_8e66iGZm-98" style="edgeStyle=orthogonalEdgeStyle;rounded=0;orthogonalLoop=1;jettySize=auto;html=1;exitX=1;exitY=0.75;exitDx=0;exitDy=0;entryX=1;entryY=1;entryDx=0;entryDy=0;" parent="WIyWlLk6GJQsqaUBKTNV-1" edge="1">
          <mxGeometry relative="1" as="geometry">
            <mxPoint x="230" y="282.5" as="sourcePoint" />
            <mxPoint x="230" y="290" as="targetPoint" />
          </mxGeometry>
        </mxCell>
        <mxCell id="tC9lpOL2mER_8e66iGZm-100" value="1" style="text;html=1;align=center;verticalAlign=middle;whiteSpace=wrap;rounded=0;" parent="WIyWlLk6GJQsqaUBKTNV-1" vertex="1">
          <mxGeometry x="590" y="315" width="60" height="30" as="geometry" />
        </mxCell>
        <mxCell id="tC9lpOL2mER_8e66iGZm-103" value="Register ıd" style="ellipse;whiteSpace=wrap;html=1;" parent="WIyWlLk6GJQsqaUBKTNV-1" vertex="1">
          <mxGeometry x="90" y="190" width="44" height="40" as="geometry" />
        </mxCell>
        <mxCell id="tC9lpOL2mER_8e66iGZm-108" value="" style="endArrow=none;html=1;rounded=0;entryX=0.5;entryY=1;entryDx=0;entryDy=0;" parent="WIyWlLk6GJQsqaUBKTNV-1" target="tC9lpOL2mER_8e66iGZm-103" edge="1">
          <mxGeometry width="50" height="50" relative="1" as="geometry">
            <mxPoint x="90" y="275" as="sourcePoint" />
            <mxPoint x="120" y="245" as="targetPoint" />
          </mxGeometry>
        </mxCell>
        <mxCell id="tC9lpOL2mER_8e66iGZm-111" value="" style="endArrow=none;html=1;rounded=0;entryX=0.75;entryY=1;entryDx=0;entryDy=0;" parent="WIyWlLk6GJQsqaUBKTNV-1" target="tC9lpOL2mER_8e66iGZm-48" edge="1">
          <mxGeometry width="50" height="50" relative="1" as="geometry">
            <mxPoint x="-60" y="185" as="sourcePoint" />
            <mxPoint x="80" y="50" as="targetPoint" />
          </mxGeometry>
        </mxCell>
        <mxCell id="tC9lpOL2mER_8e66iGZm-116" style="edgeStyle=orthogonalEdgeStyle;rounded=0;orthogonalLoop=1;jettySize=auto;html=1;exitX=0.25;exitY=0;exitDx=0;exitDy=0;entryX=0;entryY=0;entryDx=0;entryDy=0;" parent="WIyWlLk6GJQsqaUBKTNV-1" source="tC9lpOL2mER_8e66iGZm-91" target="tC9lpOL2mER_8e66iGZm-91" edge="1">
          <mxGeometry relative="1" as="geometry" />
        </mxCell>
        <mxCell id="tC9lpOL2mER_8e66iGZm-117" value="" style="endArrow=none;html=1;rounded=0;" parent="WIyWlLk6GJQsqaUBKTNV-1" edge="1">
          <mxGeometry width="50" height="50" relative="1" as="geometry">
            <mxPoint x="-406" y="420" as="sourcePoint" />
            <mxPoint x="-356" y="370" as="targetPoint" />
          </mxGeometry>
        </mxCell>
        <mxCell id="tC9lpOL2mER_8e66iGZm-118" value="" style="rhombus;whiteSpace=wrap;html=1;rotation=45;" parent="WIyWlLk6GJQsqaUBKTNV-1" vertex="1">
          <mxGeometry x="340" y="140" width="80" height="60" as="geometry" />
        </mxCell>
        <mxCell id="tC9lpOL2mER_8e66iGZm-119" value="" style="endArrow=none;html=1;rounded=0;exitX=0;exitY=0.5;exitDx=0;exitDy=0;" parent="WIyWlLk6GJQsqaUBKTNV-1" source="tC9lpOL2mER_8e66iGZm-118" edge="1">
          <mxGeometry width="50" height="50" relative="1" as="geometry">
            <mxPoint x="320" y="150" as="sourcePoint" />
            <mxPoint x="150" y="20" as="targetPoint" />
          </mxGeometry>
        </mxCell>
        <mxCell id="tC9lpOL2mER_8e66iGZm-120" value="N" style="text;html=1;align=center;verticalAlign=middle;whiteSpace=wrap;rounded=0;" parent="WIyWlLk6GJQsqaUBKTNV-1" vertex="1">
          <mxGeometry x="150" width="60" height="30" as="geometry" />
        </mxCell>
        <mxCell id="tC9lpOL2mER_8e66iGZm-121" value="" style="rhombus;whiteSpace=wrap;html=1;" parent="WIyWlLk6GJQsqaUBKTNV-1" vertex="1">
          <mxGeometry x="280" y="235" width="80" height="80" as="geometry" />
        </mxCell>
        <mxCell id="tC9lpOL2mER_8e66iGZm-122" value="" style="endArrow=none;html=1;rounded=0;entryX=0;entryY=0.5;entryDx=0;entryDy=0;" parent="WIyWlLk6GJQsqaUBKTNV-1" target="tC9lpOL2mER_8e66iGZm-121" edge="1">
          <mxGeometry width="50" height="50" relative="1" as="geometry">
            <mxPoint x="170" y="300" as="sourcePoint" />
            <mxPoint x="220" y="250" as="targetPoint" />
          </mxGeometry>
        </mxCell>
        <mxCell id="tC9lpOL2mER_8e66iGZm-123" value="" style="endArrow=none;html=1;rounded=0;entryX=0;entryY=1;entryDx=0;entryDy=0;" parent="WIyWlLk6GJQsqaUBKTNV-1" target="he36MSc151WVG09XfCEi-2" edge="1">
          <mxGeometry width="50" height="50" relative="1" as="geometry">
            <mxPoint x="360" y="275" as="sourcePoint" />
            <mxPoint x="410" y="225" as="targetPoint" />
          </mxGeometry>
        </mxCell>
        <mxCell id="tC9lpOL2mER_8e66iGZm-124" value="1" style="text;html=1;align=center;verticalAlign=middle;whiteSpace=wrap;rounded=0;" parent="WIyWlLk6GJQsqaUBKTNV-1" vertex="1">
          <mxGeometry x="480" y="155" width="60" height="30" as="geometry" />
        </mxCell>
        <mxCell id="tC9lpOL2mER_8e66iGZm-125" value="N" style="text;html=1;align=center;verticalAlign=middle;whiteSpace=wrap;rounded=0;" parent="WIyWlLk6GJQsqaUBKTNV-1" vertex="1">
          <mxGeometry x="158" y="295" width="60" height="30" as="geometry" />
        </mxCell>
        <mxCell id="tC9lpOL2mER_8e66iGZm-127" value="" style="rhombus;whiteSpace=wrap;html=1;" parent="WIyWlLk6GJQsqaUBKTNV-1" vertex="1">
          <mxGeometry x="-156" y="325" width="80" height="80" as="geometry" />
        </mxCell>
        <mxCell id="tC9lpOL2mER_8e66iGZm-128" value="" style="endArrow=none;html=1;rounded=0;entryX=0;entryY=0.5;entryDx=0;entryDy=0;" parent="WIyWlLk6GJQsqaUBKTNV-1" target="tC9lpOL2mER_8e66iGZm-127" edge="1">
          <mxGeometry width="50" height="50" relative="1" as="geometry">
            <mxPoint x="-256" y="400" as="sourcePoint" />
            <mxPoint x="-160" y="370" as="targetPoint" />
          </mxGeometry>
        </mxCell>
        <mxCell id="tC9lpOL2mER_8e66iGZm-130" value="" style="endArrow=none;html=1;rounded=0;entryX=0;entryY=0.75;entryDx=0;entryDy=0;" parent="WIyWlLk6GJQsqaUBKTNV-1" target="tC9lpOL2mER_8e66iGZm-36" edge="1">
          <mxGeometry width="50" height="50" relative="1" as="geometry">
            <mxPoint x="-76" y="365" as="sourcePoint" />
            <mxPoint x="-26" y="315" as="targetPoint" />
          </mxGeometry>
        </mxCell>
        <mxCell id="tC9lpOL2mER_8e66iGZm-131" value="1" style="text;html=1;align=center;verticalAlign=middle;whiteSpace=wrap;rounded=0;" parent="WIyWlLk6GJQsqaUBKTNV-1" vertex="1">
          <mxGeometry x="-270" y="390" width="60" height="30" as="geometry" />
        </mxCell>
        <mxCell id="tC9lpOL2mER_8e66iGZm-132" value="N" style="text;html=1;align=center;verticalAlign=middle;whiteSpace=wrap;rounded=0;" parent="WIyWlLk6GJQsqaUBKTNV-1" vertex="1">
          <mxGeometry y="290" width="60" height="30" as="geometry" />
        </mxCell>
        <mxCell id="tC9lpOL2mER_8e66iGZm-133" value="Kulüp (KulüpID, KulüpAdı, DanışmanÖğretmenID)&#xa;Kulüp Üyeliği (ÜyelikID, ÖğrenciID, KulüpID)" style="text;whiteSpace=wrap;html=1;" parent="WIyWlLk6GJQsqaUBKTNV-1" vertex="1">
          <mxGeometry x="510" y="610" width="300" height="50" as="geometry" />
        </mxCell>
        <mxCell id="tC9lpOL2mER_8e66iGZm-134" value="&lt;b&gt;club&lt;/b&gt;" style="rounded=1;whiteSpace=wrap;html=1;fontSize=12;glass=0;strokeWidth=1;shadow=0;" parent="WIyWlLk6GJQsqaUBKTNV-1" vertex="1">
          <mxGeometry x="333" y="470" width="120" height="40" as="geometry" />
        </mxCell>
        <mxCell id="tC9lpOL2mER_8e66iGZm-135" value="Club name" style="ellipse;whiteSpace=wrap;html=1;" parent="WIyWlLk6GJQsqaUBKTNV-1" vertex="1">
          <mxGeometry x="399" y="400" width="54" height="40" as="geometry" />
        </mxCell>
        <mxCell id="tC9lpOL2mER_8e66iGZm-136" value="Club ıd" style="ellipse;whiteSpace=wrap;html=1;" parent="WIyWlLk6GJQsqaUBKTNV-1" vertex="1">
          <mxGeometry x="306" y="585" width="54" height="40" as="geometry" />
        </mxCell>
        <mxCell id="tC9lpOL2mER_8e66iGZm-137" value="Advisor" style="ellipse;whiteSpace=wrap;html=1;" parent="WIyWlLk6GJQsqaUBKTNV-1" vertex="1">
          <mxGeometry x="414" y="530" width="57" height="40" as="geometry" />
        </mxCell>
        <mxCell id="tC9lpOL2mER_8e66iGZm-139" value="" style="endArrow=none;html=1;rounded=0;" parent="WIyWlLk6GJQsqaUBKTNV-1" edge="1">
          <mxGeometry width="50" height="50" relative="1" as="geometry">
            <mxPoint x="400" y="470" as="sourcePoint" />
            <mxPoint x="420" y="440" as="targetPoint" />
          </mxGeometry>
        </mxCell>
        <mxCell id="tC9lpOL2mER_8e66iGZm-141" value="" style="endArrow=none;html=1;rounded=0;exitX=0;exitY=0;exitDx=0;exitDy=0;entryX=0.625;entryY=1.017;entryDx=0;entryDy=0;entryPerimeter=0;" parent="WIyWlLk6GJQsqaUBKTNV-1" source="tC9lpOL2mER_8e66iGZm-137" target="tC9lpOL2mER_8e66iGZm-134" edge="1">
          <mxGeometry width="50" height="50" relative="1" as="geometry">
            <mxPoint x="230" y="550" as="sourcePoint" />
            <mxPoint x="280" y="500" as="targetPoint" />
          </mxGeometry>
        </mxCell>
        <mxCell id="tC9lpOL2mER_8e66iGZm-142" value="" style="endArrow=none;html=1;rounded=0;exitX=0.704;exitY=-0.05;exitDx=0;exitDy=0;entryX=0.25;entryY=1;entryDx=0;entryDy=0;exitPerimeter=0;" parent="WIyWlLk6GJQsqaUBKTNV-1" source="tC9lpOL2mER_8e66iGZm-136" target="tC9lpOL2mER_8e66iGZm-134" edge="1">
          <mxGeometry width="50" height="50" relative="1" as="geometry">
            <mxPoint x="295" y="580" as="sourcePoint" />
            <mxPoint x="345" y="530" as="targetPoint" />
            <Array as="points" />
          </mxGeometry>
        </mxCell>
        <mxCell id="tC9lpOL2mER_8e66iGZm-143" value="" style="rhombus;whiteSpace=wrap;html=1;" parent="WIyWlLk6GJQsqaUBKTNV-1" vertex="1">
          <mxGeometry x="540" y="470" width="60" height="60" as="geometry" />
        </mxCell>
        <mxCell id="tC9lpOL2mER_8e66iGZm-144" value="" style="endArrow=none;html=1;rounded=0;entryX=0;entryY=0.5;entryDx=0;entryDy=0;exitX=1;exitY=0.75;exitDx=0;exitDy=0;" parent="WIyWlLk6GJQsqaUBKTNV-1" source="tC9lpOL2mER_8e66iGZm-134" target="tC9lpOL2mER_8e66iGZm-143" edge="1">
          <mxGeometry width="50" height="50" relative="1" as="geometry">
            <mxPoint x="456" y="510" as="sourcePoint" />
            <mxPoint x="510" y="500" as="targetPoint" />
          </mxGeometry>
        </mxCell>
        <mxCell id="tC9lpOL2mER_8e66iGZm-145" value="" style="endArrow=none;html=1;rounded=0;entryX=0.144;entryY=1;entryDx=0;entryDy=0;entryPerimeter=0;exitX=1;exitY=0.5;exitDx=0;exitDy=0;exitPerimeter=0;" parent="WIyWlLk6GJQsqaUBKTNV-1" source="tC9lpOL2mER_8e66iGZm-143" target="he36MSc151WVG09XfCEi-1" edge="1">
          <mxGeometry width="50" height="50" relative="1" as="geometry">
            <mxPoint x="600" y="490" as="sourcePoint" />
            <mxPoint x="620" y="445" as="targetPoint" />
          </mxGeometry>
        </mxCell>
        <mxCell id="tC9lpOL2mER_8e66iGZm-148" value="1" style="text;html=1;align=center;verticalAlign=middle;whiteSpace=wrap;rounded=0;" parent="WIyWlLk6GJQsqaUBKTNV-1" vertex="1">
          <mxGeometry x="456" y="470" width="60" height="30" as="geometry" />
        </mxCell>
        <mxCell id="tC9lpOL2mER_8e66iGZm-149" value="1" style="text;html=1;align=center;verticalAlign=middle;whiteSpace=wrap;rounded=0;" parent="WIyWlLk6GJQsqaUBKTNV-1" vertex="1">
          <mxGeometry x="630" y="420" width="60" height="30" as="geometry" />
        </mxCell>
        <mxCell id="tC9lpOL2mER_8e66iGZm-150" value="&lt;b&gt;Club membership&lt;/b&gt;" style="rounded=1;whiteSpace=wrap;html=1;fontSize=12;glass=0;strokeWidth=1;shadow=0;" parent="WIyWlLk6GJQsqaUBKTNV-1" vertex="1">
          <mxGeometry x="38" y="500" width="120" height="40" as="geometry" />
        </mxCell>
        <mxCell id="tC9lpOL2mER_8e66iGZm-151" value="member ıd" style="ellipse;whiteSpace=wrap;html=1;" parent="WIyWlLk6GJQsqaUBKTNV-1" vertex="1">
          <mxGeometry x="34" y="430" width="54" height="40" as="geometry" />
        </mxCell>
        <mxCell id="tC9lpOL2mER_8e66iGZm-152" value="&lt;b&gt;&lt;u&gt;Student ıd&lt;/u&gt;&lt;/b&gt;" style="ellipse;whiteSpace=wrap;html=1;" parent="WIyWlLk6GJQsqaUBKTNV-1" vertex="1">
          <mxGeometry x="116" y="565" width="54" height="40" as="geometry" />
        </mxCell>
        <mxCell id="tC9lpOL2mER_8e66iGZm-153" value="&lt;b&gt;Club ıd&lt;/b&gt;" style="ellipse;whiteSpace=wrap;html=1;" parent="WIyWlLk6GJQsqaUBKTNV-1" vertex="1">
          <mxGeometry y="560" width="54" height="40" as="geometry" />
        </mxCell>
        <mxCell id="tC9lpOL2mER_8e66iGZm-154" value="" style="endArrow=none;html=1;rounded=0;entryX=0.883;entryY=0.933;entryDx=0;entryDy=0;entryPerimeter=0;" parent="WIyWlLk6GJQsqaUBKTNV-1" target="tC9lpOL2mER_8e66iGZm-150" edge="1">
          <mxGeometry width="50" height="50" relative="1" as="geometry">
            <mxPoint x="138" y="570" as="sourcePoint" />
            <mxPoint x="188" y="520" as="targetPoint" />
          </mxGeometry>
        </mxCell>
        <mxCell id="tC9lpOL2mER_8e66iGZm-156" value="" style="endArrow=none;html=1;rounded=0;" parent="WIyWlLk6GJQsqaUBKTNV-1" edge="1">
          <mxGeometry width="50" height="50" relative="1" as="geometry">
            <mxPoint x="49" y="565" as="sourcePoint" />
            <mxPoint x="70" y="540" as="targetPoint" />
          </mxGeometry>
        </mxCell>
        <mxCell id="tC9lpOL2mER_8e66iGZm-158" value="" style="endArrow=none;html=1;rounded=0;entryX=1;entryY=1;entryDx=0;entryDy=0;" parent="WIyWlLk6GJQsqaUBKTNV-1" target="tC9lpOL2mER_8e66iGZm-151" edge="1">
          <mxGeometry width="50" height="50" relative="1" as="geometry">
            <mxPoint x="110" y="505" as="sourcePoint" />
            <mxPoint x="150" y="475" as="targetPoint" />
          </mxGeometry>
        </mxCell>
        <mxCell id="tC9lpOL2mER_8e66iGZm-159" value="" style="rhombus;whiteSpace=wrap;html=1;rotation=-30;" parent="WIyWlLk6GJQsqaUBKTNV-1" vertex="1">
          <mxGeometry x="270" y="360" width="80" height="80" as="geometry" />
        </mxCell>
        <mxCell id="tC9lpOL2mER_8e66iGZm-160" value="" style="endArrow=none;html=1;rounded=0;exitX=0.924;exitY=0.649;exitDx=0;exitDy=0;exitPerimeter=0;entryX=0.75;entryY=1;entryDx=0;entryDy=0;" parent="WIyWlLk6GJQsqaUBKTNV-1" source="tC9lpOL2mER_8e66iGZm-159" target="he36MSc151WVG09XfCEi-2" edge="1">
          <mxGeometry width="50" height="50" relative="1" as="geometry">
            <mxPoint x="350" y="400" as="sourcePoint" />
            <mxPoint x="620" y="170" as="targetPoint" />
          </mxGeometry>
        </mxCell>
        <mxCell id="tC9lpOL2mER_8e66iGZm-161" value="" style="endArrow=none;html=1;rounded=0;entryX=0;entryY=0.5;entryDx=0;entryDy=0;" parent="WIyWlLk6GJQsqaUBKTNV-1" target="tC9lpOL2mER_8e66iGZm-159" edge="1">
          <mxGeometry width="50" height="50" relative="1" as="geometry">
            <mxPoint x="130" y="500" as="sourcePoint" />
            <mxPoint x="260" y="410" as="targetPoint" />
          </mxGeometry>
        </mxCell>
        <mxCell id="tC9lpOL2mER_8e66iGZm-162" value="1" style="text;html=1;align=center;verticalAlign=middle;whiteSpace=wrap;rounded=0;" parent="WIyWlLk6GJQsqaUBKTNV-1" vertex="1">
          <mxGeometry x="590" y="170" width="60" height="30" as="geometry" />
        </mxCell>
        <mxCell id="tC9lpOL2mER_8e66iGZm-164" value="N" style="text;html=1;align=center;verticalAlign=middle;whiteSpace=wrap;rounded=0;" parent="WIyWlLk6GJQsqaUBKTNV-1" vertex="1">
          <mxGeometry x="120" y="460" width="60" height="30" as="geometry" />
        </mxCell>
        <mxCell id="tC9lpOL2mER_8e66iGZm-166" value="" style="endArrow=none;html=1;rounded=0;" parent="WIyWlLk6GJQsqaUBKTNV-1" edge="1">
          <mxGeometry width="50" height="50" relative="1" as="geometry">
            <mxPoint x="270" y="510" as="sourcePoint" />
            <mxPoint x="330" y="480" as="targetPoint" />
          </mxGeometry>
        </mxCell>
        <mxCell id="tC9lpOL2mER_8e66iGZm-169" value="" style="rhombus;whiteSpace=wrap;html=1;" parent="WIyWlLk6GJQsqaUBKTNV-1" vertex="1">
          <mxGeometry x="220" y="480" width="48" height="60" as="geometry" />
        </mxCell>
        <mxCell id="tC9lpOL2mER_8e66iGZm-170" value="" style="endArrow=none;html=1;rounded=0;entryX=0;entryY=0.5;entryDx=0;entryDy=0;" parent="WIyWlLk6GJQsqaUBKTNV-1" target="tC9lpOL2mER_8e66iGZm-169" edge="1">
          <mxGeometry width="50" height="50" relative="1" as="geometry">
            <mxPoint x="158" y="535" as="sourcePoint" />
            <mxPoint x="208" y="485" as="targetPoint" />
          </mxGeometry>
        </mxCell>
        <mxCell id="tC9lpOL2mER_8e66iGZm-171" value="N" style="text;html=1;align=center;verticalAlign=middle;whiteSpace=wrap;rounded=0;" parent="WIyWlLk6GJQsqaUBKTNV-1" vertex="1">
          <mxGeometry x="150" y="530" width="60" height="30" as="geometry" />
        </mxCell>
        <mxCell id="tC9lpOL2mER_8e66iGZm-172" value="1" style="text;html=1;align=center;verticalAlign=middle;whiteSpace=wrap;rounded=0;" parent="WIyWlLk6GJQsqaUBKTNV-1" vertex="1">
          <mxGeometry x="290" y="490" width="60" height="30" as="geometry" />
        </mxCell>
        <mxCell id="tC9lpOL2mER_8e66iGZm-173" value="Lesson&lt;div&gt;code&lt;/div&gt;" style="ellipse;whiteSpace=wrap;html=1;" parent="WIyWlLk6GJQsqaUBKTNV-1" vertex="1">
          <mxGeometry x="-346" y="25" width="40" height="60" as="geometry" />
        </mxCell>
        <mxCell id="tC9lpOL2mER_8e66iGZm-174" value="" style="endArrow=none;html=1;rounded=0;entryX=0;entryY=1;entryDx=0;entryDy=0;" parent="WIyWlLk6GJQsqaUBKTNV-1" target="tC9lpOL2mER_8e66iGZm-173" edge="1">
          <mxGeometry width="50" height="50" relative="1" as="geometry">
            <mxPoint x="-390" y="110" as="sourcePoint" />
            <mxPoint x="-340" y="60" as="targetPoint" />
          </mxGeometry>
        </mxCell>
        <mxCell id="tC9lpOL2mER_8e66iGZm-175" value="" style="endArrow=none;html=1;rounded=0;" parent="WIyWlLk6GJQsqaUBKTNV-1" source="tC9lpOL2mER_8e66iGZm-185" target="tC9lpOL2mER_8e66iGZm-12" edge="1">
          <mxGeometry width="50" height="50" relative="1" as="geometry">
            <mxPoint x="-414.2842712474619" y="240.57190958417937" as="sourcePoint" />
            <mxPoint x="-390" y="160" as="targetPoint" />
          </mxGeometry>
        </mxCell>
        <mxCell id="tC9lpOL2mER_8e66iGZm-177" value="" style="endArrow=none;html=1;rounded=0;exitX=1;exitY=0.75;exitDx=0;exitDy=0;" parent="WIyWlLk6GJQsqaUBKTNV-1" source="tC9lpOL2mER_8e66iGZm-12" edge="1">
          <mxGeometry width="50" height="50" relative="1" as="geometry">
            <mxPoint x="-320" y="140" as="sourcePoint" />
            <mxPoint x="-10" y="-110" as="targetPoint" />
          </mxGeometry>
        </mxCell>
        <mxCell id="tC9lpOL2mER_8e66iGZm-178" value="1" style="text;html=1;align=center;verticalAlign=middle;resizable=0;points=[];autosize=1;strokeColor=none;fillColor=none;" parent="WIyWlLk6GJQsqaUBKTNV-1" vertex="1">
          <mxGeometry x="-376" y="160" width="30" height="30" as="geometry" />
        </mxCell>
        <mxCell id="tC9lpOL2mER_8e66iGZm-179" value="N" style="text;html=1;align=center;verticalAlign=middle;whiteSpace=wrap;rounded=0;" parent="WIyWlLk6GJQsqaUBKTNV-1" vertex="1">
          <mxGeometry x="-380" y="320" width="60" height="30" as="geometry" />
        </mxCell>
        <mxCell id="tC9lpOL2mER_8e66iGZm-181" value="" style="endArrow=none;html=1;rounded=0;exitX=0.25;exitY=0;exitDx=0;exitDy=0;entryX=0.444;entryY=0.938;entryDx=0;entryDy=0;entryPerimeter=0;" parent="WIyWlLk6GJQsqaUBKTNV-1" source="tC9lpOL2mER_8e66iGZm-1" target="tC9lpOL2mER_8e66iGZm-185" edge="1">
          <mxGeometry width="50" height="50" relative="1" as="geometry">
            <mxPoint x="-331" y="350" as="sourcePoint" />
            <mxPoint x="-370.44365081389583" y="278.2842712474619" as="targetPoint" />
          </mxGeometry>
        </mxCell>
        <mxCell id="tC9lpOL2mER_8e66iGZm-185" value="" style="rhombus;whiteSpace=wrap;html=1;" parent="WIyWlLk6GJQsqaUBKTNV-1" vertex="1">
          <mxGeometry x="-406" y="195" width="80" height="80" as="geometry" />
        </mxCell>
      </root>
    </mxGraphModel>
  </diagram>
</mxfile>
